<svg xmlns="http://www.w3.org/2000/svg" xmlns:xlink="http://www.w3.org/1999/xlink" xmlns:sketch="http://www.bohemiancoding.com/sketch/ns" width="52px" height="93px" viewBox="0 0 52 93" version="1.1">
    <title>touch_gesture_tap_hold_timer</title>
    <description>Created with Sketch (http://www.bohemiancoding.com/sketch)</description>
    <defs/>
    <g id="Page-1" stroke="none" stroke-width="1" fill="none" fill-rule="evenodd" sketch:type="MSPage">
        <path d="M22,26.6621782 C19.0109931,24.9331311 17,21.701412 17,18 C17,12.4771522 21.4771522,8 27,8 C32.5228478,8 37,12.4771522 37,18 C37,21.701412 34.9890069,24.9331311 32,26.6621782 L32,21.3177953 C32.6318473,20.367489 33,19.2267378 33,18 C33,14.6862913 30.3137087,12 27,12 C23.6862913,12 21,14.6862913 21,18 C21,19.2267378 21.3681527,20.367489 22,21.3177953 L22,26.6621782 L22,26.6621782 Z M10.1208311,44.4742363 C11.069965,43.5998843 12.4426864,43.5948364 13.4314272,43.5948363 C14.420168,43.594836 15.1020877,45.1452337 15.1020877,45.1452337 C15.1020877,45.1452337 16.4206932,39.8196212 19.5234703,39.2538953 C22.6262473,38.6881694 23.1596638,40.5501009 23.1596638,40.5501009 L23.1596638,19.485582 C23.1596638,19.485582 23.1596638,15.1857218 27.092437,15.1857224 C31.0252101,15.1857231 31.02521,19.485582 31.02521,19.485582 L31.02521,49.0712946 C31.02521,53.5106599 32.6496699,60.1348311 32.6496699,60.1348311 C32.6496699,60.1348311 42.9353001,41.3623184 51.634683,47.3302537 C52.985967,48.4321783 48.3188039,51.2419497 45.7314828,55.538248 C42.6032881,60.7326765 40.578486,68.2548389 40.2016806,69.0807475 C39.8248753,69.906656 32.6829251,83.7160646 32.048943,84.5410705 C31.4149607,85.3660763 30.124743,85.9030707 29.7279412,86.4269663 C29.3311393,86.9508619 29.2773109,90.1285771 29.2773109,90.1285771 C29.2773109,90.1285771 27.1839512,92.9594735 18.789916,92.9594735 C10.3958807,92.9594754 8.30252101,90.1285771 8.30252101,90.1285771 C8.30252101,90.1285771 9.68086922,81.461238 9.68086922,80.6738501 C9.6808692,79.8864621 0.193126825,64.2257666 0.193126723,62.1802991 C0.193126663,60.1348315 2.65266253,52.4484792 4.16666749,49.8893666 C5.68067227,47.3302537 8.30252101,48.0668782 8.30252101,48.0668782 C8.30252101,48.0668782 8.81816865,45.6742624 10.1208311,44.4742363 Z M37.5,11 C40.5375663,11 43,8.53756627 43,5.5 C43,2.46243373 40.5375663,0 37.5,0 C34.4624337,0 32,2.46243373 32,5.5 C32,8.53756627 34.4624337,11 37.5,11 Z M37.5,10 C39.9852815,10 42,7.9852815 42,5.5 C42,3.0147185 39.9852815,1 37.5,1 C35.0147185,1 33,3.0147185 33,5.5 C33,7.9852815 35.0147185,10 37.5,10 Z M37,2 L37,6 L40,6 L40,5 L38,5 L38,2 L37,2 Z" id="touch_gesture_tap_hold_timer" fill="#000000" sketch:type="MSShapeGroup"/>
    </g>
</svg>