<svg xmlns="http://www.w3.org/2000/svg" xmlns:xlink="http://www.w3.org/1999/xlink" version="1.0" id="Layer_1" x="0px" y="0px" width="100px" height="100px" viewBox="0 0 100 100" enable-background="new 0 0 100 100" xml:space="preserve">
<g>
	<g>
		<path d="M75.629,72.031c-0.268-0.804-0.804-6.696-1.339-9.374c-0.536-2.678-2.41-8.839-3.482-12.053    c-1.071-3.214-3.214-5.625-4.018-6.16c-0.803-0.536-2.563-0.536-2.563-0.536l1.136,2.143h-1.251c0,0-0.804-2.678-1.607-3.75    c-0.803-1.071-2.41-2.143-3.75-2.411c-1.339-0.268-1.342,0-1.342,0l1.514,4.285h-0.976c0,0-1.071-4.285-2.411-5.625    c-1.339-1.339-3.75-2.678-5.357-2.678s-2.198,1.037-2.678,1.875c-0.314,0.549-0.272,0.811-0.314,0.927c0,0,0.757-0.757,1.136,0    c0.33,0.66,1.049,3.947,1.09,5.383l0.231,0.386l-0.268,0.268c0,0-4.018-6.428-4.821-7.767c-0.804-1.339-1.607-2.411-2.143-2.946    c-0.536-0.536-1.607-2.946-2.143-4.018c-0.536-1.071-1.607-2.946-2.411-2.946c-1.339,0-2.411,1.071-2.411,2.678    s0.536,5.089,1.339,7.232c0.803,2.143,4.821,9.642,5.357,12.856c0.536,3.214,0.804,8.303,0.804,10.713    c0,2.411,0,3.482-0.268,3.214c-0.268-0.268-2.143-2.946-2.143-3.214c0-0.268-0.536-4.821-2.411-6.16    c-1.875-1.339-2.411-0.804-2.678-0.536c-0.268,0.268-0.268,3.214-0.536,4.018s-1.339,2.946-1.339,4.553    c0,1.607,0.803,2.678,1.339,3.75c0.536,1.071,2.411,4.821,2.946,5.892c0.536,1.071,7.767,5.089,10.446,5.892    c2.678,0.804,5.892,1.607,6.428,3.214c0.536,1.607,0.536,3.214,2.411,3.75c1.875,0.536,5.944,0.73,9.91-0.536    c3.47-1.108,7.14-2.857,8.839-6.428C77.099,75.396,75.897,72.835,75.629,72.031z"/>
	</g>
</g>
<g>
	<path d="M42.399,25.686c-0.327,0-0.646-0.16-0.838-0.454c-0.302-0.462-0.171-1.082,0.291-1.384l8.153-5.32   c0.462-0.302,1.081-0.172,1.384,0.291c0.302,0.462,0.171,1.082-0.291,1.384l-8.153,5.32C42.776,25.633,42.586,25.686,42.399,25.686   z"/>
</g>
<g>
	<path d="M29.979,27.283c-0.073,0-0.147-0.008-0.221-0.024l-9.497-2.143c-0.539-0.122-0.877-0.657-0.755-1.196   c0.122-0.539,0.657-0.876,1.196-0.755l9.497,2.143c0.539,0.122,0.877,0.657,0.755,1.196C30.848,26.967,30.436,27.283,29.979,27.283   z"/>
</g>
<g>
	<path d="M22.13,37.204c-0.33,0-0.652-0.163-0.843-0.461c-0.298-0.465-0.162-1.083,0.303-1.381l8.2-5.249   c0.464-0.299,1.083-0.162,1.381,0.303c0.298,0.465,0.162,1.083-0.303,1.381l-8.2,5.249C22.501,37.153,22.315,37.204,22.13,37.204z"/>
</g>
<g>
	<path d="M38.003,22.458c-0.055,0-0.11-0.004-0.167-0.014c-0.545-0.092-0.912-0.607-0.821-1.152l1.612-9.601   c0.091-0.545,0.601-0.914,1.152-0.821c0.545,0.092,0.912,0.607,0.821,1.152l-1.612,9.601   C38.906,22.112,38.483,22.458,38.003,22.458z"/>
</g>
<g>
	<path d="M33.132,23.72c-0.355,0-0.699-0.189-0.88-0.523l-4.646-8.556c-0.264-0.485-0.083-1.092,0.402-1.356   c0.484-0.263,1.093-0.084,1.356,0.402l4.646,8.556c0.264,0.485,0.083,1.092-0.402,1.356C33.457,23.681,33.293,23.72,33.132,23.72z"/>
</g>
</svg>