<svg xmlns="http://www.w3.org/2000/svg" xmlns:xlink="http://www.w3.org/1999/xlink" version="1.0" id="Layer_1" x="0px" y="0px" width="100px" height="100px" viewBox="0 0 100 100" enable-background="new 0 0 100 100" xml:space="preserve">
<g>
	<path d="M77.371,75.38c-0.084-0.92,0.814-7.311,0.912-10.289c0.098-2.978-0.359-9.986-0.696-13.666   c-0.337-3.68-2.013-6.773-2.733-7.542c-0.72-0.769-2.588-1.207-2.588-1.207l0.673,2.558l-1.329-0.312c0,0-0.186-3.044-0.773-4.382   c-0.586-1.338-2.026-2.876-3.382-3.494c-1.356-0.618-1.425-0.334-1.425-0.334l0.541,4.928l-1.036-0.243   c0,0-0.071-4.818-1.159-6.573c-1.089-1.756-1.259-2.739-2.965-3.14c-1.707-0.4-2.588-0.511-3.605-0.006   c-0.233,0.116-0.551,0.356-0.624,0.468c0,0-0.223,1.014-0.26,2.425c-0.034,1.329,0.063,2.214-0.045,3.886l-0.225,1.156L56.3,39.832   c0,0,0.031-3.466,0.031-5.169c0-2.666,0.416-5.408,0.682-7.794c0.213-1.914,0.882-4.539,0.886-6.075   c0.002-0.669-0.888-2.179-1.764-2.186c-1.554-0.011-2.393,0.302-3.255,1.828c-1.092,1.933-2.525,6.024-3.071,9.932   c-0.345,2.472-2.224,9.521-2.456,13.068c-0.231,3.547-1.214,9.017-1.814,11.577c-0.6,2.56-0.867,3.698-1.085,3.346   c-0.218-0.351-1.542-3.662-1.475-3.947c0.067-0.284,0.632-5.253-1.026-7.142c-1.658-1.889-2.36-1.454-2.711-1.236   c-0.351,0.218-1.085,3.346-1.569,4.133c-0.485,0.787-2.156,2.795-2.556,4.502c-0.4,1.707,0.186,3.044,0.488,4.315   c0.302,1.271,1.359,5.72,1.662,6.991c0.302,1.271,6.981,7.338,9.626,8.858c2.644,1.52,5.857,3.174,6.026,5.014   c0.169,1.84-0.231,3.547,1.626,4.582c1.858,1.036,6.13,2.256,10.657,1.899c3.961-0.312,8.294-1.256,10.987-4.626   C78.095,79.32,77.456,76.3,77.371,75.38z"/>
</g>
<path d="M52.072,17.345v-4.674l10.809,8.472l-10.517,8.764v-5.259c0,0-7.011-1.753-14.899-1.753S19.06,24.941,19.06,24.941  S32.498,17.345,52.072,17.345z M51.246,21.289c0,2.15,1.743,3.893,3.893,3.893c2.15,0,3.893-1.743,3.893-3.893  s-1.743-3.893-3.893-3.893C52.989,17.395,51.246,19.139,51.246,21.289z"/>
</svg>