<svg xmlns="http://www.w3.org/2000/svg" xmlns:xlink="http://www.w3.org/1999/xlink" version="1.0" id="Layer_1" x="0px" y="0px" width="100px" height="100px" viewBox="0 0 100 100" enable-background="new 0 0 100 100" xml:space="preserve">
<g>
	<path d="M76.162,71.107c-0.36-0.851-1.45-7.212-2.264-10.078c-0.813-2.866-3.382-9.403-4.824-12.806   c-1.442-3.403-3.979-5.839-4.899-6.352c-0.92-0.513-2.833-0.362-2.833-0.362l1.419,2.232l-1.361,0.108c0,0-1.104-2.843-2.07-3.939   c-0.966-1.096-2.806-2.122-4.285-2.298c-1.479-0.176-1.459,0.116-1.459,0.116l2.016,4.529l-1.061,0.084   c0,0-1.534-4.567-3.106-5.908c-1.571-1.341-2.033-2.226-3.78-2.088c-1.747,0.138-2.621,0.301-3.436,1.092   c-0.186,0.181-0.416,0.507-0.452,0.636c0,0,0.096,1.033,0.491,2.389c0.372,1.277,0.734,2.09,1.14,3.715l0.138,1.17l-0.268,0.314   c0,0-1.026-3.311-1.544-4.933c-0.812-2.539-1.25-5.278-1.724-7.632c-0.38-1.888-0.541-4.592-1.005-6.056   c-0.202-0.637-1.509-1.806-2.346-1.545c-1.484,0.462-2.188,1.016-2.544,2.732c-0.452,2.174-0.572,6.506,0.099,10.395   c0.424,2.46,0.78,9.746,1.639,13.195c0.859,3.449,1.589,8.959,1.796,11.58c0.208,2.621,0.3,3.786-0.014,3.518   c-0.314-0.268-2.584-3.019-2.607-3.31c-0.023-0.291-0.998-5.196-3.152-6.491c-2.154-1.295-2.69-0.666-2.958-0.352   c-0.268,0.314-0.014,3.518-0.236,4.415s-1.202,3.319-1.064,5.066c0.138,1.747,1.104,2.843,1.779,3.962   c0.675,1.119,3.036,5.035,3.711,6.153c0.675,1.119,8.884,4.864,11.866,5.507c2.981,0.643,6.546,1.24,7.266,2.941   c0.721,1.701,0.859,3.449,2.944,3.87c2.085,0.421,6.526,0.282,10.73-1.436c3.678-1.504,7.517-3.722,9.057-7.751   C78.051,74.64,76.523,71.958,76.162,71.107z"/>
</g>
<path d="M25.023,20.37l-3.622-0.141l6.891-8.12l6.474,8.414l-4.075-0.159c0,0-1.57,5.38-1.808,11.492  c-0.238,6.112,1.029,14.323,1.029,14.323S24.432,35.537,25.023,20.37z"/>
</svg>